<svg width="48" height="31" viewBox="0 0 48 31" fill="none" xmlns="http://www.w3.org/2000/svg">
<path d="M16.0228 30.3115C10.9668 30.3115 5.91082 30.3115 0.854858 30.3115C0.854858 20.4372 0.854858 10.5628 0.854858 0.688507C5.83057 0.688507 10.8063 0.688507 15.782 0.688507C15.8999 0.706033 16.0177 0.734824 16.1356 0.741083C17.219 0.794912 18.2887 0.937619 19.3332 1.2318C20.8342 1.65491 22.1747 2.35092 23.0763 3.67284C24.4632 5.70829 24.5748 7.95531 23.9741 10.2536C23.5177 11.9987 22.27 13.1253 20.7376 13.9715C20.6047 14.0441 20.4718 14.1167 20.2887 14.2156C20.3928 14.2494 20.4279 14.262 20.4643 14.272C22.5509 14.9142 24.1484 16.1334 25.0249 18.1764C25.6456 19.6222 25.8024 21.1369 25.6607 22.698C25.4789 24.7009 24.6688 26.3896 23.1653 27.724C21.5527 29.1548 19.6003 29.8195 17.5037 30.13C17.0134 30.2026 16.5168 30.2514 16.0228 30.3115ZM7.41056 25.2316C7.49458 25.2366 7.55226 25.2442 7.61119 25.2442C9.8771 25.2442 12.143 25.2642 14.4077 25.2291C15.1224 25.2179 15.851 25.124 16.5431 24.9475C17.8485 24.617 18.784 23.8208 19.0573 22.4564C19.1777 21.858 19.184 21.2208 19.1388 20.6087C19.0285 19.1103 18.2836 18.0462 16.8416 17.5042C16.0992 17.225 15.3306 17.1136 14.5456 17.1098C12.2797 17.0998 10.015 17.1061 7.74913 17.1073C7.64129 17.1073 7.5347 17.1073 7.40931 17.1073C7.41056 19.8225 7.41056 22.5089 7.41056 25.2316ZM7.41182 12.6722C7.4858 12.6772 7.5347 12.6834 7.58361 12.6834C9.70907 12.6822 11.8333 12.6897 13.9587 12.6709C14.4352 12.6671 14.9243 12.6233 15.387 12.5107C16.5218 12.2353 17.4535 11.6732 17.7984 10.4677C17.9075 10.0884 17.9526 9.68281 17.9714 9.28724C18.0517 7.57726 17.2391 6.41557 15.6052 6.00623C14.9331 5.83848 14.2208 5.77464 13.5249 5.76212C11.6214 5.72957 9.71659 5.75086 7.81183 5.75086C7.68392 5.75086 7.55727 5.75086 7.41307 5.75086C7.41181 8.06922 7.41182 10.355 7.41182 12.6722Z" fill="black"/>
<path d="M36.7281 30.3115C36.0936 30.2239 35.4516 30.1763 34.8271 30.0411C30.5198 29.1085 27.9078 26.4209 26.9109 22.1922C26.1886 19.1253 26.4181 16.1034 27.9416 13.2918C29.6708 10.0997 32.4158 8.31082 36.0033 7.84013C38.0034 7.57725 39.9771 7.74249 41.8405 8.5787C44.4989 9.77043 46.2043 11.8397 47.1874 14.5348C47.8834 16.4451 48.0915 18.4242 47.9636 20.4785C42.8061 20.4785 37.6548 20.4785 32.4709 20.4785C32.5587 21.8655 32.7481 23.1849 33.6296 24.2853C34.4622 25.3243 35.6234 25.7248 36.8999 25.8525C38.599 26.024 40.1702 25.7111 41.438 24.4868C41.7891 24.1476 42.0261 23.6906 42.3246 23.2938C42.381 23.2187 42.4763 23.1211 42.5528 23.1211C44.198 23.1123 45.8432 23.1161 47.4884 23.1186C47.5059 23.1186 47.5247 23.1323 47.5736 23.1524C47.5297 23.2888 47.4896 23.429 47.4407 23.5667C46.8689 25.1703 46.0877 26.6499 44.8174 27.8191C43.2537 29.2587 41.3515 29.9385 39.2762 30.2038C38.969 30.2426 38.6617 30.2777 38.3545 30.314C37.8115 30.3115 37.2698 30.3115 36.7281 30.3115ZM42.0462 16.7205C41.7841 15.4499 41.428 14.2557 40.5289 13.3156C40.2643 13.0389 39.9408 12.7698 39.5909 12.6346C37.8028 11.9461 36.0372 11.9423 34.3958 13.0452C33.1092 13.9102 32.6164 15.2183 32.4772 16.7193C35.6698 16.7205 38.8335 16.7205 42.0462 16.7205Z" fill="black"/>
<path d="M31.459 5.48047C31.459 4.37887 31.459 3.31107 31.459 2.21823C35.4416 2.21823 39.4154 2.21823 43.413 2.21823C43.413 3.28979 43.413 4.37511 43.413 5.48047C39.4429 5.48047 35.4604 5.48047 31.459 5.48047Z" fill="black"/>
</svg>
