<svg width="105" height="41" viewBox="0 0 105 41" fill="none" xmlns="http://www.w3.org/2000/svg">
<path d="M46.7614 21.995C46.513 21.335 46.2384 21.2736 45.7128 21.7281C45.1116 22.2474 44.4256 22.4892 43.6346 22.3749C42.4112 22.1985 41.3365 21.6858 40.5083 20.7596C39.5387 19.6762 38.4281 18.7672 37.2928 17.8806C37.1956 17.8046 37.105 17.7207 37.0606 17.6824C38.3218 17.2365 39.5863 16.8163 40.8298 16.3427C42.7079 15.6265 44.1823 14.3898 45.274 12.6834C46.0285 11.5029 46.4171 10.2166 46.3147 8.80951C46.1523 6.57526 45.1377 4.78627 43.4089 3.42273C41.3144 1.77116 38.8813 0.986992 36.2657 0.930838C32.7711 0.856187 29.2732 0.925553 25.7766 0.936123C25.5164 0.936784 25.2542 0.948675 24.9966 0.981707C24.6575 1.02531 24.4984 1.21425 24.5023 1.52276C24.5062 1.8511 24.6797 2.05721 25.0045 2.10676C25.1329 2.12592 25.264 2.12658 25.3938 2.13318C25.8744 2.15697 26.1861 2.40999 26.3302 2.86516C26.3954 3.0726 26.4534 3.29193 26.4606 3.50729C26.4854 4.23002 26.4795 4.95407 26.4978 5.6768C26.5147 6.33611 26.5676 6.99476 26.5715 7.65407C26.5799 9.39152 26.5702 11.129 26.5695 12.8664C26.5695 13.8012 26.5728 14.736 26.5747 15.6708C26.5773 16.6056 26.5806 17.5404 26.5839 18.4752C26.5871 19.4212 26.6308 20.3685 26.5839 21.3119C26.5369 22.2381 26.6823 23.1564 26.6223 24.08C26.5989 24.4413 26.6113 24.8073 26.5597 25.1641C26.4371 26.0156 26.0257 26.7066 25.369 27.2549C24.9992 27.5641 24.891 27.9909 25.161 28.2532C25.3266 28.415 25.6142 28.5187 25.8509 28.5253C28.5767 28.6073 31.3019 28.563 34.0231 28.3681C34.4137 28.3404 34.5989 27.9275 34.3648 27.5899C34.2631 27.4432 34.102 27.3309 33.9514 27.2285C33.5784 26.9748 33.3397 26.6392 33.2915 26.1827C33.2673 25.9535 33.2517 25.7223 33.2523 25.4924C33.2549 23.381 33.2621 21.2696 33.268 19.1583C33.2686 18.8075 33.268 18.4573 33.268 18.0722C33.9957 18.1317 34.5592 18.419 34.9335 18.9905C35.1943 19.3895 35.4258 19.8242 35.5817 20.2741C35.9808 21.4229 36.3225 22.5922 36.7 23.749C37.315 25.6291 38.4373 27.0753 40.2364 27.9314C41.0542 28.3205 41.9091 28.5485 42.8201 28.4652C44.2351 28.3364 45.289 27.5727 46.1321 26.4708C47.1775 25.1033 47.3653 23.601 46.7614 21.995ZM33.6495 16.2667C33.5764 16.2951 33.4036 16.2456 33.3795 16.1881C33.2849 15.9635 33.1767 15.7217 33.1728 15.4852C33.1382 13.2985 33.12 11.1118 33.105 8.92512C33.0965 7.69701 33.1036 6.46824 33.1036 5.23946C33.1036 4.3932 33.0939 3.54627 33.1069 2.7C33.116 2.13913 33.2647 2.04334 33.7975 2.19793C36.5227 2.99134 38.1568 4.816 38.6974 7.61575C38.8813 8.56904 39.0281 9.55602 38.9961 10.5205C38.9465 11.9792 38.1992 13.1657 37.1969 14.1817C36.1986 15.1938 34.9406 15.7626 33.6495 16.2667Z" fill="black"/>
<path d="M66.0228 15.2083C65.9256 15.1608 65.803 15.0538 65.7945 14.9646C65.7874 14.8899 65.9139 14.7756 66.0065 14.7201C66.6397 14.3376 67.2977 13.9954 67.9126 13.5852C69.0368 12.836 69.803 11.7909 70.09 10.4564C70.2478 9.72314 70.3541 8.94954 70.3078 8.20501C70.1382 5.4667 68.8686 3.43262 66.3501 2.29568C65.0048 1.68922 63.565 1.44214 62.1069 1.38136C60.1434 1.30011 58.1773 1.29152 56.2124 1.25122C56.2118 1.28491 56.2118 1.31794 56.2111 1.35164C54.2679 1.35164 52.3239 1.34701 50.3806 1.35758C50.1478 1.3589 49.8955 1.39656 49.6887 1.49565C49.2805 1.69054 49.2701 2.11995 49.664 2.33333C50.187 2.61674 50.4322 3.05672 50.4628 3.63742C50.4804 3.96641 50.4908 4.29606 50.4935 4.62572C50.5052 6.07382 50.5169 7.52126 50.5195 8.96936C50.5215 10.2549 50.5117 11.5412 50.5071 12.8268C50.4902 17.2702 50.4713 21.7136 50.4582 26.1563C50.4563 26.9444 50.303 27.6586 49.6842 28.2115C49.5857 28.2994 49.5238 28.5194 49.5596 28.6449C49.5903 28.7513 49.7794 28.8285 49.9124 28.8814C50.0076 28.9197 50.127 28.9039 50.2352 28.9006C51.0275 28.8781 51.8198 28.8332 52.6122 28.8312C54.6324 28.8266 56.6526 28.849 58.6729 28.8457C60.8835 28.8418 63.0766 28.6812 65.2116 28.0404C66.2973 27.7147 67.2918 27.2113 68.1447 26.4516C69.8226 24.9566 70.4186 23.0936 70.0156 20.8706C69.5566 18.3437 68.3821 16.3539 66.0228 15.2083ZM62.8692 22.2097C62.8124 23.0619 62.7009 23.9154 62.5503 24.7564C62.3149 26.0698 61.488 26.8804 60.2666 27.3032C59.1443 27.6916 57.9718 27.5331 56.7589 27.6731V15.9813C57.293 15.9535 57.8753 15.8703 58.4505 15.908C59.0726 15.9489 59.6941 16.0731 60.3038 16.2138C61.173 16.414 61.7189 17.0026 62.0782 17.8145C62.6983 19.217 62.9709 20.6836 62.8692 22.2097ZM62.7929 11.9376C62.2405 13.4484 61.0987 14.2465 59.5558 14.4262C58.8287 14.5107 58.0847 14.4717 57.3497 14.4447C56.8098 14.4248 56.695 14.2346 56.7028 13.6863C56.7191 12.622 56.7185 11.5577 56.7146 10.4928C56.7133 10.2193 56.652 9.94577 56.6533 9.67293C56.6552 9.29439 56.7054 8.91651 56.708 8.53797C56.7165 7.17575 56.7152 5.81353 56.7146 4.45065C56.7146 3.92347 56.6989 3.39562 56.7015 2.86778C56.7035 2.48197 56.8137 2.39147 57.1997 2.40006C57.5141 2.40732 57.8284 2.40138 58.1433 2.40138C58.1453 2.39279 58.1473 2.3842 58.1492 2.37561C58.8052 2.44366 59.4749 2.45026 60.116 2.59098C61.5728 2.91072 62.3912 3.94527 62.8881 5.29956C63.7039 7.52522 63.5963 9.74163 62.7929 11.9376Z" fill="black"/>
<path d="M91.5072 23.1881C91.5424 23.0262 91.5985 22.8664 91.6103 22.7032C91.7739 20.4148 91.6892 18.1316 91.4551 15.8525C91.1505 12.8829 90.4482 10.0138 89.2972 7.26295C88.5506 5.47859 87.5613 3.84617 86.2838 2.39609C85.8984 1.95875 85.4609 1.62514 84.8857 1.48244C84.6177 1.41572 84.3556 1.30011 84.4032 0.930813C84.4397 0.6441 84.6894 0.426092 85.0357 0.428735C85.4804 0.432038 85.9252 0.471676 86.3699 0.490834C88.1704 0.568128 89.9702 0.665901 91.772 0.709502C92.5715 0.728661 93.3736 0.634851 94.175 0.597195C94.4352 0.585304 94.6967 0.573413 94.9562 0.589268C95.3319 0.61239 95.5777 0.831719 95.6188 1.15345C95.6638 1.5082 95.4727 1.70507 95.1714 1.82993C94.1202 2.26727 93.609 3.11882 93.5438 4.21348C93.4649 5.54003 93.4681 6.87252 93.4544 8.20302C93.4101 12.5804 93.3651 16.9577 93.3403 21.3357C93.3279 23.5105 93.3586 25.6859 93.3703 27.8614C93.3736 28.4943 93.2027 28.6713 92.5734 28.637C90.8499 28.5425 89.127 28.4322 87.4035 28.3403C86.4847 28.2914 85.8658 27.8059 85.4465 27.0158C84.964 26.1061 84.5082 25.1819 84.0106 24.2808C82.8179 22.1245 81.5991 19.982 80.4051 17.8258C79.558 16.2957 78.7435 14.7472 77.8958 13.2172C77.2678 12.0829 76.6105 10.9651 75.9649 9.84073C75.9218 9.76607 75.8729 9.69539 75.8266 9.62272C75.7927 9.61875 75.7581 9.61479 75.7242 9.61017C75.6642 9.96294 75.5495 10.3164 75.5547 10.6678C75.5671 11.4692 75.646 12.2692 75.6832 13.0705C75.751 14.5312 75.7451 15.9985 75.8847 17.4518C76.1044 19.7429 76.5003 22.0029 77.5541 24.0865C78.1657 25.2962 79.0096 26.3248 79.9727 27.2549C80.1592 27.4353 80.4566 27.4927 80.6822 27.6394C80.8342 27.7385 81.08 27.9374 81.0552 28.0166C80.9978 28.195 80.8211 28.4163 80.6529 28.4599C80.2388 28.5676 79.8019 28.6297 79.3734 28.6317C76.9854 28.6416 74.5967 28.635 72.2081 28.6171C71.8338 28.6145 71.4568 28.5465 71.0891 28.4685C70.9795 28.4454 70.8432 28.2961 70.8217 28.1844C70.806 28.1018 70.9567 27.9862 71.0349 27.8871C71.048 27.8706 71.0695 27.8607 71.0891 27.8515C72.8602 27.0145 73.5469 25.4653 73.7855 23.6281C74.079 21.3753 74.079 19.11 74.0568 16.8434C74.0281 13.8963 73.9883 10.9486 73.9857 8.00153C73.9838 5.95622 74.0392 3.91091 74.0653 1.8656C74.0744 1.18053 74.3842 0.79142 75.0708 0.792742C76.2968 0.795384 77.5241 0.848895 78.7487 0.914298C79.2104 0.938741 79.496 1.275 79.7106 1.6694C80.5714 3.25293 81.4419 4.83117 82.2955 6.41932C83.2705 8.23341 84.2062 10.0693 85.2033 11.8708C86.4795 14.1778 87.8085 16.4549 89.0918 18.7572C89.3827 19.2791 89.577 19.8552 89.8254 20.4022C89.9422 20.6592 90.0413 20.9426 90.2206 21.1494C90.6138 21.6019 90.9282 22.0901 91.1336 22.6556C91.2001 22.838 91.3123 23.0038 91.4035 23.1769C91.4375 23.1821 91.4727 23.1854 91.5072 23.1881Z" fill="black"/>
<path d="M12.1417 19.9728C14.1932 19.9134 16.2447 19.8539 18.2969 19.7951C18.8564 19.7793 19.3318 19.6062 19.6801 19.1239C19.7577 19.0169 19.9689 18.9284 20.0902 18.9561C20.2161 18.9852 20.3348 19.1517 20.4052 19.2858C20.4613 19.3935 20.4509 19.5428 20.4522 19.6736C20.4841 22.7858 20.5128 25.898 20.5448 29.0102C20.548 29.3313 20.5174 29.6312 20.1991 29.8043C19.922 29.9549 19.6938 29.914 19.5751 29.6266C19.2066 28.7334 18.488 28.491 17.6253 28.5016C14.8023 28.5372 11.9787 28.5623 9.15567 28.6211C7.70603 28.6515 6.27922 28.565 4.97304 27.8647C2.70827 26.6505 1.41709 24.7056 0.843237 22.1998C0.0111459 18.565 -0.134926 14.8919 0.103745 11.1858C0.17613 10.0561 0.202214 8.92578 0.517835 7.82583C1.38644 4.80015 3.69295 2.79778 6.79112 2.4232C8.85961 2.17282 10.9346 2.24417 13.0025 2.41263C14.4351 2.5289 15.8424 2.48596 17.2314 2.10279C18.2754 1.81542 19.1147 1.23341 19.7394 0.327022C19.8437 0.175738 20.0439 0.0270962 20.2167 0.00397411C20.4972 -0.0336818 20.6582 0.206127 20.6576 0.568812C20.6543 2.84534 20.6341 5.12253 20.6491 7.39906C20.655 8.31007 20.7397 9.22042 20.7776 10.1321C20.7867 10.3567 20.8865 10.6447 20.55 10.7346C20.1796 10.8337 19.9566 10.7088 19.772 10.3772C19.0286 9.03875 17.9996 7.93417 16.8988 6.90293C15.4459 5.54137 13.7485 4.61847 11.7687 4.38461C9.5815 4.12696 7.40019 4.15075 5.37409 5.20842C3.83511 6.01174 2.56741 7.11763 2.00464 8.83659C1.77901 9.52629 1.68315 10.2695 1.60881 10.9969C1.43014 12.7442 1.43274 14.4909 1.899 16.202C2.04247 16.7291 2.22897 17.2497 2.45069 17.7478C3.14649 19.3102 4.36854 20.1063 6.05098 20.0997C8.08165 20.0924 10.1117 20.0277 12.1423 19.9874C12.1417 19.9827 12.1417 19.9781 12.1417 19.9728Z" fill="black"/>
<path d="M101.163 2.34985C99.1454 2.35514 97.3788 4.04833 97.3782 5.97671C97.3769 8.24928 99.071 10.0772 101.166 10.0634C103.194 10.0495 105.019 8.20832 105 6.17292C104.984 4.47312 103.75 2.35184 101.163 2.34985ZM101.651 8.98654C100.532 9.18803 99.5908 8.78505 98.8689 7.91566C98.1796 7.08591 98.0675 6.14121 98.4633 5.13507C98.5076 5.02342 98.5533 4.91112 98.612 4.80674C99.1526 3.8475 99.8066 3.07324 100.913 3.28597C102.645 3.27077 103.826 4.33372 103.986 5.92122C104.132 7.36271 103.121 8.72163 101.651 8.98654Z" fill="black"/>
<path d="M78.7402 39.4825C78.7037 39.065 78.4755 38.8094 78.1364 38.6211C78.0816 38.5907 78.0275 38.559 77.929 38.5028C78.467 38.1996 78.5518 37.7233 78.4605 37.2305C78.3757 36.7766 78.0379 36.4509 77.5893 36.4251C76.7428 36.3756 75.8918 36.4106 75.046 36.4106V40.9055C75.8723 40.9055 76.6757 40.9221 77.4771 40.8956C77.7138 40.8877 77.9688 40.7985 78.1768 40.6789C78.6242 40.4206 78.7865 40.0038 78.7402 39.4825ZM75.8155 37.0527C76.3085 37.0818 76.7872 37.0944 77.2626 37.1439C77.5521 37.1743 77.6969 37.4101 77.6793 37.6751C77.661 37.9505 77.4817 38.1646 77.1895 38.1956C76.7435 38.2432 76.2948 38.2624 75.8155 38.296V37.0527ZM77.5182 40.1022C76.9659 40.1676 76.4076 40.1782 75.8149 40.2132V38.8919C76.39 38.9322 76.9554 38.9514 77.5143 39.0201C77.7843 39.0531 77.9453 39.2923 77.9421 39.5572C77.9388 39.8168 77.7914 40.0705 77.5182 40.1022Z" fill="black"/>
<path d="M94.027 40.8646C93.5112 41.0436 93.2314 40.7873 92.9588 40.4068C92.3622 39.5744 91.7257 38.7717 91.1075 37.9552C91.069 37.9043 91.0514 37.8382 91.0234 37.7794C90.9934 37.8006 90.964 37.8217 90.934 37.8429C90.934 38.8477 90.934 39.8518 90.934 40.8804C90.666 40.8804 90.4241 40.8804 90.1613 40.8804C90.1613 39.3828 90.1613 37.8838 90.1613 36.3512C90.3517 36.3512 90.5349 36.334 90.7136 36.3578C90.8147 36.3716 90.9379 36.4278 90.9992 36.5064C91.6937 37.4009 92.3785 38.3033 93.0651 39.2044C93.1101 39.2632 93.146 39.3286 93.1864 39.3914C93.2105 39.3762 93.234 39.3616 93.2581 39.3464C93.2581 38.3641 93.2581 37.3824 93.2581 36.3756C93.5268 36.3756 93.7688 36.3756 94.0263 36.3756C94.027 37.8818 94.027 39.3881 94.027 40.8646Z" fill="black"/>
<path d="M42.8716 36.2706C41.3861 36.1959 40.423 37.467 40.3923 38.5464C40.3519 39.9866 41.5374 41.0714 42.7314 40.9723C44.0213 41.0555 45.1012 39.9727 45.1005 38.6264C45.0999 37.3137 44.093 36.3327 42.8716 36.2706ZM42.7321 40.2271C41.8335 40.2257 41.242 39.5083 41.259 38.6178C41.2681 37.5918 41.9398 37.0118 42.7393 37.0303C43.6424 37.0514 44.2267 37.6486 44.2371 38.6178C44.2482 39.5836 43.66 40.2284 42.7321 40.2271Z" fill="black"/>
<path d="M84.4488 36.2699C82.9959 36.1966 81.8938 37.4504 81.9956 38.6178C81.9075 39.98 83.0865 40.9425 84.1886 40.9875C85.708 41.0496 86.6921 39.8644 86.6842 38.6211C86.6764 37.3097 85.6722 36.332 84.4488 36.2699ZM84.3119 40.2462C83.4093 40.1504 82.7781 39.5037 82.84 38.45C82.8844 37.685 83.5906 36.9636 84.3249 37.0197C85.2913 37.0937 85.8404 37.7365 85.8202 38.6528C85.7987 39.6715 85.1759 40.1663 84.3119 40.2462Z" fill="black"/>
<path d="M70.4956 39.2242C70.5719 39.1813 70.6254 39.1469 70.6821 39.1199C71.331 38.8087 71.5807 38.3152 71.4999 37.5007C71.4503 36.9959 71.0493 36.4945 70.4298 36.4331C69.5879 36.3505 68.7323 36.4126 67.8715 36.4126V40.8824H68.6404V39.322C68.8777 39.322 69.0923 39.3332 69.3055 39.3187C69.5077 39.3048 69.6355 39.361 69.7529 39.5486C70.0118 39.9641 70.3052 40.3566 70.5915 40.7543C70.6365 40.817 70.7121 40.8943 70.7773 40.8983C71.0538 40.9141 71.331 40.9049 71.6668 40.9049C71.2606 40.3222 70.8902 39.7911 70.4956 39.2242ZM69.9009 38.5913C69.4933 38.6112 69.0832 38.596 68.6462 38.596V37.0494C69.1608 37.0831 69.6629 37.0904 70.1572 37.1565C70.5295 37.206 70.6971 37.5271 70.656 37.9776C70.6254 38.3106 70.3267 38.5709 69.9009 38.5913Z" fill="black"/>
<path d="M31.2856 36.5989C30.972 36.4582 30.6113 36.3848 30.267 36.363C29.6782 36.3254 29.0854 36.3525 28.4913 36.3525V40.9055C29.1806 40.9055 29.8399 40.9088 30.4998 40.9029C30.6146 40.9016 30.73 40.8659 30.8435 40.8382C31.7349 40.6182 32.4229 39.8294 32.5155 38.8523C32.5996 37.9618 32.2025 37.0111 31.2856 36.5989ZM31.6045 39.0848C31.4845 39.6219 31.0378 40.0243 30.4803 40.1161C30.3642 40.1346 30.2494 40.1736 30.1333 40.1775C29.8627 40.1868 29.5914 40.1802 29.2823 40.1802V37.093C29.9221 37.0726 30.5761 36.9834 31.1226 37.4366C31.6417 37.8673 31.746 38.4473 31.6045 39.0848Z" fill="black"/>
<path d="M1.83506 37.0851C1.83506 37.494 1.83506 37.8561 1.83506 38.2564C2.58303 38.2564 3.32513 38.2564 4.08484 38.2564C4.08484 38.5094 4.08484 38.7241 4.08484 38.9798C3.34404 38.9798 2.6026 38.9798 1.84484 38.9798C1.84484 39.3894 1.84484 39.7593 1.84484 40.1696C2.68933 40.1696 3.53902 40.1696 4.40894 40.1696C4.40894 40.4239 4.40894 40.6393 4.40894 40.8798C3.30427 40.8798 2.19372 40.8798 1.06427 40.8798C1.06427 39.3808 1.06427 37.8818 1.06427 36.3677C2.15851 36.3677 3.23971 36.3677 4.34503 36.3677C4.34503 36.591 4.34503 36.8136 4.34503 37.0851C3.50903 37.0851 2.67237 37.0851 1.83506 37.0851Z" fill="black"/>
<path d="M62.7336 36.6128C62.6553 36.4291 62.5784 36.3175 62.3638 36.3505C62.1297 36.3862 61.865 36.2507 61.7202 36.6068C61.3074 37.6229 60.8581 38.6244 60.4245 39.6318C60.2464 40.0454 60.0717 40.4603 59.8904 40.8857C60.7094 40.9524 60.7088 40.9524 61.0087 40.2475C61.0387 40.1782 61.0557 40.0923 61.1066 40.0447C61.19 39.9668 61.2957 39.8611 61.3941 39.8584C62.0123 39.8413 62.6312 39.8498 63.2533 39.8498C63.3107 39.9787 63.3648 40.0956 63.4157 40.2145C63.7274 40.9452 63.7274 40.9452 64.5771 40.8884C63.9511 39.4409 63.3361 38.0292 62.7336 36.6128ZM61.6152 39.1225C61.5852 39.1218 61.5559 39.1086 61.4933 39.0934C61.728 38.5359 61.9582 37.9889 62.2158 37.3764C62.4721 37.9776 62.7062 38.5259 62.9605 39.1232C62.4825 39.1232 62.0489 39.1238 61.6152 39.1225Z" fill="black"/>
<path d="M7.54819 40.2509C7.72687 40.0348 7.88468 39.8439 8.04771 39.647C8.47745 40.0097 8.93066 40.268 9.49017 40.2429C9.62646 40.237 9.79666 40.231 9.88861 40.1511C10.0321 40.0262 10.2016 39.8426 10.2094 39.6761C10.2166 39.5301 10.0484 39.3081 9.90165 39.2361C9.60755 39.0908 9.27563 39.0247 8.9587 38.9269C8.85632 38.8952 8.75003 38.8754 8.65025 38.8378C7.94076 38.5689 7.68318 38.1421 7.75947 37.3679C7.80838 36.8691 8.28573 36.3723 8.88045 36.3003C9.60364 36.2131 10.3014 36.3122 10.9046 36.8625C10.7644 37.0653 10.6261 37.2655 10.5035 37.4432C10.1742 37.3084 9.87426 37.173 9.56516 37.0633C9.43735 37.0184 9.28997 37.0072 9.15368 37.0171C8.82763 37.0395 8.5557 37.2542 8.55309 37.5125C8.54983 37.8138 8.75133 37.9816 9.01609 38.0668C9.38192 38.1844 9.75754 38.2736 10.1188 38.4057C10.8557 38.6746 11.1446 39.1853 11.0135 39.937C10.9131 40.5118 10.3118 40.9458 9.64994 40.9782C8.85763 41.0159 8.16639 40.8038 7.54819 40.2509Z" fill="black"/>
<path d="M24.0531 36.3525C24.2676 36.3525 24.4398 36.3518 24.6113 36.3531C24.6745 36.3538 24.7378 36.3591 24.8323 36.3644C24.8323 37.3877 24.8682 38.3978 24.8121 39.4026C24.7932 39.7415 24.5819 40.0956 24.385 40.3922C23.9592 41.0317 22.8649 41.1116 22.1561 40.8613C21.4485 40.6116 21.0553 39.98 21.0547 39.1522C21.0547 38.2313 21.0547 37.3104 21.0547 36.3716C21.3155 36.3716 21.5503 36.3716 21.8366 36.3716C21.8366 36.48 21.8339 36.5956 21.8372 36.7112C21.8581 37.5865 21.8613 38.4632 21.9089 39.3372C21.937 39.8505 22.4013 40.231 22.9308 40.2469C23.4649 40.2634 23.9416 39.8842 23.982 39.3504C24.0316 38.6964 24.0348 38.0391 24.0518 37.3824C24.0596 37.0534 24.0531 36.7251 24.0531 36.3525Z" fill="black"/>
<path d="M56.8379 37.0124C56.68 37.1987 56.5196 37.3883 56.3383 37.6024C55.9608 37.247 55.518 36.9926 54.9943 37.027C54.6037 37.0521 54.2496 37.2311 53.9894 37.5528C53.4945 38.1646 53.516 39.209 54.0631 39.7739C54.5398 40.266 55.3224 40.5508 56.3657 39.6523C56.519 39.832 56.6729 40.0124 56.8346 40.202C56.1623 41.1506 54.5046 41.2894 53.531 40.4253C52.5705 39.573 52.5352 37.8587 53.4417 36.9252C54.3481 35.9918 56.1701 36.0948 56.8379 37.0124Z" fill="black"/>
<path d="M15.4615 37.1294C14.9731 37.1294 14.5427 37.1294 14.0973 37.1294C14.0973 36.8678 14.0973 36.6306 14.0973 36.373C15.3005 36.373 16.4977 36.373 17.7133 36.373C17.7133 36.6174 17.7133 36.8539 17.7133 37.13C17.2503 37.13 16.7899 37.13 16.3093 37.13C16.3093 38.3965 16.3093 39.6239 16.3093 40.8784C16.0243 40.8784 15.7615 40.8784 15.4622 40.8784C15.4615 39.6477 15.4615 38.4123 15.4615 37.1294Z" fill="black"/>
<path d="M36.1327 36.3677C36.391 36.3677 36.6251 36.3677 36.8755 36.3677C36.8755 37.8726 36.8755 39.363 36.8755 40.8791C36.6394 40.8791 36.3968 40.8791 36.1327 40.8791C36.1327 39.3894 36.1327 37.8911 36.1327 36.3677Z" fill="black"/>
<path d="M84.7136 34.9486C84.9744 35.0689 85.1955 35.1713 85.4205 35.2756C84.9164 35.8517 84.6034 35.9984 83.9891 35.9231C84.1215 35.746 84.2408 35.5888 84.3588 35.4302C84.4736 35.275 84.5884 35.1191 84.7136 34.9486Z" fill="black"/>
<path d="M102.222 6.63999C102.554 6.3949 102.74 6.08176 102.712 5.65962C102.665 4.9501 102.265 4.42094 101.577 4.26965C101.193 4.18509 100.782 4.18641 100.386 4.2102C99.9879 4.23332 99.8157 4.44604 99.7799 4.85167C99.7381 5.32204 99.7022 5.79307 99.6722 6.26476C99.6403 6.76948 99.6103 7.2742 99.594 7.77892C99.5855 8.0326 99.7218 8.18983 99.9729 8.23607C100.228 8.28298 100.392 8.17926 100.472 7.93152C100.529 7.75646 100.591 7.58337 100.666 7.36669C100.93 7.66331 101.154 7.94342 101.408 8.19379C101.642 8.42634 101.922 8.4118 102.131 8.19644C102.33 7.99164 102.328 7.72871 102.127 7.48824C101.764 7.05487 101.769 6.97493 102.222 6.63999ZM101.198 6.0593C100.868 6.06326 100.65 5.91198 100.651 5.67878C100.652 5.27645 100.768 5.06902 100.993 5.07034C101.409 5.07298 101.756 5.3293 101.754 5.63121C101.751 5.87234 101.513 6.056 101.198 6.0593Z" fill="black"/>
</svg>
