<svg width="32" height="31" viewBox="0 0 32 31" fill="none" xmlns="http://www.w3.org/2000/svg">
<path d="M0.689667 22.3875C0.689667 17.7958 0.689667 13.2042 0.689667 8.61251C0.695937 8.59749 0.705968 8.58247 0.707222 8.56744C0.716 8.39344 0.718508 8.22069 0.731047 8.04669C0.744841 7.86893 0.753619 7.68742 0.78873 7.51341C0.860205 7.16416 0.940459 6.81615 1.032 6.4719C1.09219 6.24532 1.16492 6.02125 1.25646 5.80594C1.37934 5.51301 1.51728 5.22509 1.66399 4.94343C1.78688 4.70809 1.92231 4.47901 2.07028 4.25869C2.32483 3.87689 2.61199 3.51636 2.93426 3.18964C3.14367 2.97683 3.36938 2.77779 3.59384 2.57875C3.94118 2.27206 4.32113 2.00917 4.72491 1.78385C5.00956 1.62487 5.30299 1.47966 5.60017 1.34446C5.90739 1.20426 6.2259 1.08909 6.55569 1.01273C6.80774 0.953892 7.05602 0.865013 7.31183 0.827459C7.71059 0.769875 8.11436 0.744839 8.51563 0.706033C8.54196 0.703529 8.5683 0.694766 8.59463 0.688507C13.2167 0.688507 17.8388 0.688507 22.4609 0.688507C22.4785 0.694766 22.496 0.704781 22.5148 0.706033C22.7832 0.726062 23.0528 0.734824 23.3186 0.76612C23.5795 0.796163 23.839 0.838725 24.0961 0.896309C24.3343 0.948885 24.5713 1.01648 24.8021 1.09785C25.1193 1.21051 25.4378 1.32944 25.7425 1.47214C26.1814 1.67744 26.599 1.9203 26.9915 2.20696C27.3037 2.43479 27.6059 2.67389 27.8805 2.94679C28.0862 3.15208 28.2893 3.36239 28.4712 3.58772C28.6994 3.87063 28.9213 4.1598 29.1144 4.46649C29.31 4.77694 29.4768 5.10742 29.6386 5.43665C29.7514 5.66698 29.8442 5.90733 29.9257 6.15019C30.0098 6.40055 30.075 6.65717 30.1389 6.91379C30.1903 7.11909 30.2455 7.32689 30.2693 7.53595C30.3082 7.86893 30.322 8.20442 30.3483 8.5399C30.3496 8.56369 30.3596 8.58622 30.3659 8.61001C30.3659 13.1904 30.3659 17.7708 30.3659 22.3512C30.3596 22.3662 30.3496 22.3812 30.3483 22.3963C30.3396 22.5665 30.337 22.738 30.3245 22.9083C30.3107 23.0973 30.3044 23.2901 30.2668 23.4753C30.1979 23.8221 30.1101 24.1651 30.0273 24.5093C29.927 24.9262 29.7565 25.318 29.5746 25.7036C29.3903 26.0954 29.1696 26.4684 28.9213 26.8265C28.6781 27.177 28.411 27.5087 28.1138 27.8141C27.9019 28.032 27.6799 28.2448 27.4416 28.4338C27.1307 28.6804 26.8084 28.9157 26.4736 29.1273C26.1965 29.3025 25.8955 29.4427 25.5996 29.588C25.414 29.6793 25.2221 29.7582 25.0278 29.8271C24.6328 29.9673 24.229 30.0762 23.8164 30.1563C23.439 30.2301 23.0591 30.2752 22.6741 30.2902C22.6026 30.2927 22.5311 30.3027 22.4597 30.3103C17.8376 30.3103 13.2155 30.3103 8.59338 30.3103C8.58084 30.304 8.56955 30.294 8.55701 30.2927C8.35512 30.2802 8.15324 30.2752 7.9526 30.2552C7.7294 30.2339 7.50619 30.2076 7.28675 30.1663C7.06229 30.1237 6.83909 30.0699 6.61964 30.0061C6.34628 29.9259 6.07417 29.8446 5.80959 29.7394C5.53998 29.633 5.27791 29.5066 5.02084 29.3714C4.75124 29.2287 4.48666 29.076 4.23336 28.907C4.00388 28.753 3.79071 28.574 3.57377 28.4025C3.22392 28.1246 2.90667 27.8091 2.62327 27.4649C2.39631 27.1895 2.18815 26.8966 1.98752 26.5999C1.84206 26.3846 1.7129 26.158 1.59377 25.9264C1.47465 25.6936 1.36806 25.4532 1.2715 25.2091C1.16993 24.9512 1.07839 24.6871 0.998141 24.4217C0.934189 24.2089 0.892808 23.9886 0.845158 23.7708C0.762396 23.3902 0.72227 23.0047 0.70973 22.6153C0.707222 22.5402 0.695937 22.4639 0.689667 22.3875ZM27.6736 15.4474C27.6736 13.2104 27.6749 10.9734 27.6711 8.73769C27.6711 8.49734 27.6398 8.25699 27.6147 8.0179C27.5721 7.6098 27.463 7.21673 27.315 6.83618C27.1858 6.50445 27.0278 6.18774 26.8372 5.8873C26.6466 5.58562 26.4284 5.30521 26.1802 5.04859C25.8755 4.73188 25.5444 4.44897 25.167 4.22114C24.9826 4.10972 24.7996 3.99456 24.6052 3.90568C24.2904 3.76172 23.9694 3.63278 23.6309 3.55016C23.212 3.44751 22.7895 3.37991 22.3593 3.37866C18.2163 3.37616 14.0732 3.37491 9.92884 3.37866C9.26425 3.37991 8.59588 3.32859 7.93505 3.44876C7.73191 3.48632 7.525 3.51511 7.32813 3.57269C6.98204 3.67284 6.64848 3.80553 6.32622 3.97077C5.90739 4.18608 5.52243 4.44646 5.17257 4.76067C4.8641 5.03607 4.58321 5.34026 4.35625 5.68576C4.19449 5.93112 4.03774 6.18148 3.90984 6.44436C3.73554 6.80238 3.59509 7.17793 3.51484 7.571C3.44086 7.93402 3.38066 8.2983 3.38066 8.66884C3.37941 13.1203 3.38066 17.5705 3.37816 22.022C3.37816 22.559 3.4233 23.0885 3.55747 23.6105C3.64776 23.961 3.77942 24.294 3.93868 24.6182C4.14433 25.0376 4.40139 25.4194 4.7061 25.7737C4.96442 26.0741 5.25032 26.3432 5.57008 26.5711C5.85097 26.7726 6.15192 26.9504 6.46039 27.1056C6.76385 27.2583 7.08612 27.3747 7.41967 27.4561C7.84351 27.5588 8.27236 27.6289 8.70874 27.6289C12.7816 27.6314 16.8545 27.6314 20.9273 27.6289C21.5267 27.6289 22.1261 27.6314 22.7243 27.6001C23.0578 27.5825 23.3939 27.5212 23.7149 27.4311C24.0384 27.3409 24.3494 27.2007 24.6591 27.0643C25.1105 26.8653 25.5106 26.5823 25.8729 26.2494C26.046 26.0904 26.2128 25.9214 26.362 25.7399C26.5576 25.4995 26.747 25.2517 26.9137 24.99C27.0981 24.7009 27.2373 24.3854 27.3526 24.0612C27.4467 23.7983 27.5344 23.5329 27.5658 23.2538C27.6009 22.9396 27.6661 22.6266 27.6674 22.3124C27.6774 20.0216 27.6736 17.7345 27.6736 15.4474Z" fill="black"/>
<path d="M22.4923 31H8.43664L8.38398 30.975C8.36141 30.9737 8.33883 30.9725 8.31752 30.9712C8.17833 30.965 8.03538 30.9574 7.88615 30.9424C7.67173 30.9211 7.41717 30.8936 7.16011 30.8448C6.9206 30.7997 6.67483 30.7409 6.42654 30.6683C6.14691 30.5869 5.84847 30.4968 5.55504 30.3804C5.28168 30.2714 5.00079 30.1413 4.69859 29.981C4.37883 29.812 4.10045 29.648 3.85091 29.4803C3.6415 29.3401 3.45341 29.1899 3.27284 29.0434L3.14619 28.942C2.76624 28.6403 2.41137 28.2898 2.09161 27.903C1.82577 27.58 1.59128 27.2433 1.41697 26.9867C1.26901 26.7676 1.12731 26.5248 0.981851 26.2418C0.858963 26.0027 0.74109 25.7411 0.631996 25.4632C0.521647 25.1841 0.422585 24.8999 0.339823 24.6207C0.280887 24.4255 0.242014 24.2377 0.203142 24.0549L0.1743 23.9185C0.0877772 23.5216 0.0376188 23.1035 0.0225713 22.6391C0.0213173 22.6028 0.0175554 22.5665 0.0137936 22.5302L0 22.3875V8.47981L0.0225713 8.42348C0.0238252 8.40095 0.0238252 8.37841 0.0250792 8.35588C0.0288411 8.23571 0.0338569 8.11678 0.0426346 7.99661L0.0476505 7.92525C0.0589361 7.75876 0.0727297 7.57099 0.112856 7.37696C0.189348 7.00267 0.274617 6.63839 0.366156 6.29539C0.437632 6.02374 0.524155 5.76963 0.62071 5.53929C0.746106 5.24261 0.891566 4.93466 1.05333 4.62546C1.18875 4.36759 1.33798 4.11472 1.49723 3.87688C1.78438 3.44625 2.10289 3.05193 2.44271 2.70643C2.66592 2.4786 2.90041 2.27205 3.12738 2.07176L3.13741 2.06299C3.51109 1.73377 3.93242 1.43709 4.39011 1.18297C4.671 1.02649 4.97321 0.87502 5.31303 0.718543C5.67668 0.552051 6.04158 0.425618 6.39896 0.341746C6.48172 0.322969 6.56323 0.299184 6.64599 0.276652C6.81527 0.229083 7.00713 0.175254 7.21403 0.145211C7.50871 0.102649 7.80214 0.0776127 8.08553 0.0525763C8.19463 0.0425618 8.30372 0.0337991 8.41282 0.0237845C8.4241 0.0212809 8.43288 0.0187773 8.44291 0.0162736L8.51564 0H22.5713L22.6465 0.0250363C22.7029 0.0287918 22.7606 0.0325472 22.8171 0.0363027C23.0039 0.0475691 23.1983 0.0600872 23.3976 0.0826199C23.6911 0.117671 23.9757 0.16524 24.2441 0.224075C24.5162 0.284162 24.782 0.360523 25.0328 0.449402C25.3538 0.56457 25.6974 0.692255 26.0347 0.848732C26.5213 1.07656 26.9802 1.34696 27.3978 1.65115C27.8053 1.94783 28.1038 2.19694 28.3658 2.45982C28.564 2.65636 28.7934 2.89295 29.0066 3.15708C29.2085 3.40745 29.4693 3.74043 29.6963 4.10095C29.9182 4.45271 30.1026 4.8195 30.2568 5.13621C30.3709 5.36904 30.4762 5.62942 30.5778 5.93236C30.6719 6.21277 30.7433 6.49693 30.8073 6.74729L30.8186 6.79111C30.8687 6.9914 30.9264 7.21798 30.954 7.45833C30.9828 7.70368 30.9979 7.94528 31.0142 8.17937C31.0192 8.26324 31.0255 8.34837 31.0317 8.43224C31.0317 8.43474 31.033 8.43725 31.033 8.43975L31.0543 8.52362V22.4826L31.0317 22.5402C31.0305 22.564 31.0305 22.5878 31.0292 22.6116C31.0255 22.7267 31.0205 22.8419 31.0117 22.9583L31.0054 23.061C30.9954 23.2262 30.9828 23.4152 30.944 23.6093C30.885 23.9022 30.8148 24.1914 30.7471 24.4705L30.6994 24.6696C30.5916 25.119 30.4223 25.5246 30.2004 25.9952C30.0073 26.4058 29.7678 26.8164 29.4894 27.2183C29.2148 27.6126 28.9188 27.9744 28.6104 28.2923C28.3395 28.5715 28.105 28.7868 27.8718 28.9721C27.5094 29.2587 27.1733 29.5003 26.8435 29.7081C26.5702 29.8809 26.2893 30.0173 26.0184 30.15L25.9031 30.2063C25.6987 30.3065 25.4817 30.3979 25.2573 30.4767C24.8372 30.6257 24.397 30.7446 23.9494 30.8323C23.5356 30.9136 23.1142 30.9624 22.7004 30.9787C22.6678 30.98 22.6365 30.9837 22.6039 30.9875L22.4923 31ZM8.51313 30.9812C8.51439 30.9812 8.51564 30.9812 8.5169 30.9812C8.51564 30.9812 8.51439 30.9812 8.51313 30.9812ZM8.71126 29.623H22.4221L22.4484 29.6205C22.5136 29.613 22.5801 29.6067 22.6453 29.6042C22.9876 29.5917 23.3362 29.5504 23.681 29.4828C24.0635 29.4077 24.4384 29.3063 24.7946 29.1799C24.9689 29.1185 25.1369 29.0484 25.2924 28.9708L25.4102 28.9132C25.6585 28.7918 25.893 28.6779 26.1012 28.5464C26.3883 28.3649 26.6855 28.1521 27.0103 27.8955C27.1959 27.749 27.3877 27.5713 27.616 27.3359C27.8768 27.068 28.1175 26.7726 28.352 26.4346C28.5865 26.0966 28.7872 25.7524 28.9477 25.4119C29.1333 25.0176 29.2724 24.6858 29.3539 24.3491L29.4029 24.1463C29.4706 23.8684 29.5345 23.6068 29.5872 23.3414C29.6085 23.2362 29.616 23.1085 29.6248 22.9733L29.6323 22.8607C29.6399 22.7605 29.6436 22.6616 29.6474 22.5628C29.6499 22.4964 29.6524 22.4301 29.6562 22.365C29.6587 22.3212 29.6649 22.2798 29.6725 22.2435V8.70138C29.6662 8.67009 29.6599 8.63503 29.6574 8.59623C29.6486 8.48732 29.6424 8.37966 29.6348 8.27076C29.6198 8.04418 29.606 7.82886 29.5809 7.61856C29.5634 7.46959 29.522 7.30435 29.4781 7.13035L29.4681 7.08403C29.4079 6.84619 29.3464 6.60208 29.2699 6.37175C29.1872 6.12639 29.1044 5.91984 29.0166 5.74083C28.8774 5.45667 28.7144 5.12995 28.5288 4.83452C28.3407 4.53533 28.1213 4.25493 27.932 4.02084C27.7614 3.80928 27.5633 3.60523 27.3915 3.43499C27.1808 3.22468 26.9313 3.01813 26.5827 2.76401C26.2366 2.51115 25.8541 2.28707 25.4479 2.09679C25.1632 1.9641 24.8572 1.85019 24.5676 1.74754C24.3707 1.67744 24.1613 1.61735 23.9444 1.56978C23.7212 1.52096 23.4842 1.4809 23.2359 1.45211C23.0754 1.43333 22.9086 1.42332 22.7318 1.41205C22.6415 1.40704 22.5512 1.40078 22.4609 1.39452C22.4221 1.39202 22.3869 1.38576 22.3556 1.3795H8.67615C8.64982 1.38451 8.61847 1.39077 8.58336 1.39327C8.45671 1.40579 8.33006 1.41706 8.20341 1.42707C7.92753 1.45086 7.66671 1.47339 7.4109 1.51094C7.29303 1.52847 7.15886 1.56602 7.01716 1.60483C6.91684 1.63362 6.81527 1.66116 6.7137 1.68495C6.44159 1.74879 6.17199 1.84267 5.88734 1.97286C5.58012 2.11307 5.30927 2.24952 5.05973 2.38847C4.68856 2.59502 4.34873 2.83286 4.05029 3.097L4.04026 3.10576C3.82207 3.29854 3.61517 3.4813 3.42582 3.67408C3.14619 3.95825 2.88285 4.28372 2.64335 4.64299C2.51168 4.84078 2.38754 5.04983 2.27468 5.26514C2.13048 5.54054 2.00132 5.81344 1.89097 6.07632C1.81824 6.24782 1.75429 6.44185 1.69786 6.65216C1.61385 6.96887 1.53485 7.30686 1.46337 7.65486C1.44205 7.76127 1.43202 7.8902 1.42324 8.0254L1.41823 8.10176C1.41071 8.20316 1.40694 8.30581 1.40318 8.40846C1.40067 8.47355 1.39817 8.5399 1.39566 8.60499C1.39315 8.6488 1.38688 8.69011 1.37936 8.72642V22.3575L1.38312 22.3925C1.39064 22.4614 1.39691 22.5302 1.39942 22.5991C1.41196 22.9796 1.45083 23.3163 1.5198 23.6306L1.55115 23.7745C1.58501 23.9372 1.61761 24.09 1.66024 24.2302C1.73297 24.4718 1.81824 24.7184 1.9148 24.9625C2.00759 25.1978 2.10665 25.4181 2.20822 25.6172C2.32735 25.85 2.44271 26.0466 2.55933 26.2193C2.71608 26.4509 2.92674 26.7538 3.15622 27.033C3.41328 27.3459 3.69918 27.6276 4.00389 27.8692L4.13681 27.9756C4.30234 28.1083 4.45908 28.2347 4.61833 28.3411C4.829 28.4813 5.06725 28.6215 5.34563 28.7693C5.60395 28.9057 5.83969 29.0159 6.06666 29.106C6.30491 29.1999 6.55696 29.2762 6.81527 29.3514C7.01967 29.4114 7.22156 29.4603 7.41592 29.4966C7.62157 29.5354 7.8385 29.5592 8.02284 29.5767C8.1382 29.588 8.25983 29.5942 8.38774 29.6005C8.45921 29.6042 8.53194 29.608 8.60342 29.6117C8.63978 29.6092 8.6774 29.6155 8.71126 29.623ZM15.3936 28.3149C13.1653 28.3149 10.9383 28.3149 8.71001 28.3136C8.2661 28.3136 7.79085 28.251 7.25792 28.1208C6.8717 28.0269 6.49927 27.8917 6.15193 27.7177C5.79957 27.5412 5.46852 27.3422 5.16882 27.1269C4.81771 26.8753 4.48541 26.5686 4.18446 26.2181C3.83712 25.8137 3.5462 25.3756 3.32049 24.9174C3.12738 24.5244 2.98568 24.1513 2.89038 23.7783C2.7537 23.25 2.68849 22.6742 2.68849 22.017C2.68974 19.2542 2.68974 16.4914 2.68974 13.7299V8.66508C2.68974 8.21192 2.76498 7.7863 2.83771 7.42953C2.92423 7.00767 3.07095 6.58581 3.28788 6.14016C3.43836 5.83096 3.62018 5.5443 3.77944 5.30395C4.0227 4.93466 4.32742 4.58916 4.71238 4.24491C5.0986 3.90066 5.53498 3.60148 6.01148 3.35612C6.36635 3.17336 6.74505 3.02314 7.13629 2.90922C7.32689 2.85414 7.51624 2.82034 7.68301 2.79155L7.81217 2.76902C8.38774 2.66387 8.94199 2.67388 9.47868 2.68264C9.62916 2.68515 9.77713 2.6864 9.92886 2.68765C13.5503 2.6839 17.5003 2.6839 22.3606 2.68765C22.802 2.68765 23.2722 2.75024 23.7964 2.87918C24.224 2.98433 24.6077 3.14707 24.8936 3.27726C25.1043 3.3724 25.2886 3.48506 25.4667 3.59272L25.5281 3.63027C25.9281 3.87312 26.3056 4.17982 26.6805 4.57038C26.9564 4.85705 27.2059 5.17626 27.4229 5.51926C27.6335 5.85099 27.8141 6.21027 27.9608 6.58581C28.1451 7.059 28.258 7.50339 28.3044 7.94528L28.3157 8.05044C28.3395 8.2695 28.3646 8.49483 28.3646 8.73643C28.3683 10.4577 28.3671 12.1789 28.3671 13.9002V15.4487V17.051C28.3683 18.776 28.3683 20.5586 28.3621 22.3136C28.3608 22.5753 28.327 22.8169 28.2931 23.051C28.2793 23.1436 28.2668 23.2362 28.2567 23.3301C28.2179 23.6819 28.1125 23.9973 28.0072 24.2915C27.8605 24.7034 27.695 25.0526 27.5006 25.3593C27.3401 25.6122 27.1495 25.8713 26.9012 26.1755C26.7457 26.3658 26.5639 26.5561 26.3444 26.7563C25.8943 27.1694 25.4366 27.4761 24.9425 27.694L24.9062 27.7102C24.5902 27.8504 24.2641 27.9944 23.9055 28.0945C23.5168 28.2034 23.1331 28.2685 22.7656 28.2873C22.2051 28.3174 21.6408 28.3174 21.0979 28.3174H20.9324C19.084 28.3149 17.2382 28.3149 15.3936 28.3149ZM9.01472 4.05338C8.68367 4.05338 8.36642 4.0659 8.06045 4.12223C8.0128 4.131 7.96641 4.13851 7.91876 4.14727C7.77455 4.17231 7.63912 4.19609 7.52125 4.22989C7.21403 4.31877 6.9181 4.43644 6.64223 4.57915C6.26478 4.77318 5.93499 4.99851 5.63153 5.2689C5.33685 5.53178 5.10738 5.79091 4.93057 6.0588C4.79013 6.27286 4.64341 6.50194 4.52805 6.73978C4.36253 7.08028 4.25218 7.39574 4.18823 7.70243C4.12929 7.9916 4.0691 8.3321 4.06785 8.66383V13.7287C4.06785 16.4914 4.06785 19.2542 4.06659 22.017C4.06659 22.5565 4.118 23.0197 4.22459 23.434C4.29732 23.7144 4.40642 24.0011 4.55814 24.3103C4.73495 24.6696 4.9544 25 5.23027 25.3218C5.45974 25.5896 5.71053 25.8212 5.97261 26.009C6.21463 26.1818 6.48297 26.3432 6.77013 26.4872C7.02468 26.6149 7.29805 26.7138 7.5827 26.7839C8.01406 26.889 8.37144 26.9379 8.71001 26.9379C12.7829 26.9404 16.8557 26.9404 20.9286 26.9379H21.0954C21.6208 26.9379 22.165 26.9379 22.6892 26.9103C22.9562 26.8965 23.2396 26.8477 23.5318 26.7664C23.7939 26.6925 24.0622 26.5748 24.3456 26.4496L24.382 26.4334C24.7356 26.2769 25.0717 26.0503 25.409 25.7411C25.5795 25.5846 25.7162 25.4419 25.8291 25.303C26.0422 25.0426 26.2015 24.8248 26.3319 24.6195C26.4698 24.4017 26.5927 24.1425 26.7043 23.8283C26.7846 23.6018 26.8598 23.3802 26.8824 23.1749C26.8949 23.0685 26.91 22.9621 26.925 22.8557C26.9526 22.6591 26.9789 22.4739 26.9802 22.3074C26.9865 20.5561 26.9865 18.7748 26.9852 17.051V15.4474V13.8989C26.9852 12.1789 26.9852 10.4589 26.9827 8.73894C26.9827 8.57119 26.9626 8.39093 26.9413 8.1994L26.93 8.09049C26.8962 7.77128 26.8122 7.4433 26.673 7.08529C26.5589 6.79236 26.4172 6.51195 26.2542 6.25408C26.0874 5.98995 25.8943 5.74334 25.6836 5.52427C25.3927 5.22133 25.1068 4.98724 24.8109 4.80823L24.7482 4.76942C24.5977 4.67804 24.456 4.59167 24.3206 4.53033C24.0898 4.42517 23.7839 4.29498 23.4679 4.21737C23.0528 4.11597 22.6904 4.0659 22.3606 4.0659C17.5015 4.06215 13.5528 4.06215 9.93136 4.0659C9.77086 4.0634 9.61411 4.0634 9.45611 4.06089C9.30564 4.05589 9.15892 4.05338 9.01472 4.05338Z" fill="black"/>
<path d="M22.318 15.4299C22.3142 19.2166 19.3085 21.9756 16.0068 22.1509C14.0769 22.2535 12.3891 21.6589 10.9809 20.347C9.68683 19.1415 8.97458 17.6356 8.86549 15.8643C8.75012 13.9891 9.32318 12.3367 10.5784 10.9471C11.8788 9.5063 13.5252 8.75896 15.4713 8.72266C19.3197 8.65256 22.3255 11.7633 22.318 15.4299ZM15.5616 11.3903C13.4036 11.4028 11.4512 13.1967 11.5377 15.6102C11.6079 17.5718 13.233 19.4958 15.6268 19.4858C16.7078 19.482 17.6507 19.0865 18.4194 18.3316C19.242 17.5229 19.6608 16.5215 19.6383 15.3673C19.5956 13.2029 17.8614 11.4078 15.5616 11.3903Z" fill="black"/>
<path d="M15.5842 22.8507C13.6418 22.8507 11.9377 22.1784 10.5107 20.8503C9.08243 19.5196 8.29745 17.8572 8.17833 15.9056C8.05168 13.8376 8.68743 12.0137 10.0668 10.4852C11.5001 8.89791 13.3145 8.07296 15.4601 8.03415C17.4727 7.99785 19.3636 8.74894 20.7907 10.1497C22.2039 11.538 23.0127 13.4633 23.0089 15.4311C23.0051 19.3781 19.9455 22.6316 16.0444 22.8381C15.8889 22.8469 15.7359 22.8507 15.5842 22.8507ZM15.5993 9.4099C15.5616 9.4099 15.5228 9.4099 15.4851 9.41115C13.7371 9.4437 12.2587 10.1147 11.0913 11.4078C9.96773 12.6521 9.4511 14.1368 9.55517 15.823C9.65298 17.4103 10.2912 18.7622 11.4524 19.8438C12.7064 21.0117 14.2262 21.555 15.9717 21.4636C18.7505 21.3159 21.6258 19.0188 21.6296 15.4299V15.4286C21.6333 13.8288 20.975 12.2628 19.8239 11.1312C18.6903 10.0183 17.1943 9.4099 15.5993 9.4099ZM15.6093 20.1755C12.7315 20.1755 10.9295 17.8709 10.848 15.6352C10.8004 14.332 11.2668 13.1028 12.1609 12.1727C13.0525 11.2451 14.2901 10.7093 15.5566 10.7018H15.5654C18.1837 10.7218 20.2753 12.7648 20.3267 15.3535C20.353 16.6805 19.8602 17.8797 18.9022 18.8223C18.0069 19.7023 16.8745 20.1705 15.6281 20.1743C15.6231 20.1743 15.6168 20.1755 15.6093 20.1755ZM15.5616 12.0788C14.6676 12.085 13.7911 12.4668 13.1578 13.1265C12.5246 13.7863 12.1948 14.6588 12.2274 15.5864C12.285 17.1674 13.5653 18.7985 15.6105 18.7985C15.6156 18.7985 15.6206 18.7985 15.6256 18.7985C16.5172 18.7948 17.2946 18.4731 17.9366 17.8421C18.6276 17.1624 18.9687 16.335 18.9498 15.3823C18.9135 13.5447 17.425 12.095 15.5616 12.0788Z" fill="black"/>
<path d="M24.288 8.08801C24.2905 8.83785 23.6811 9.43747 22.9324 9.43371C22.2152 9.43121 21.592 8.83284 21.6032 8.07049C21.6133 7.37197 22.2026 6.75107 22.95 6.75232C23.6886 6.75482 24.2917 7.37447 24.288 8.08801Z" fill="black"/>
<path d="M22.94 10.1222C22.9374 10.1222 22.9337 10.1222 22.9312 10.1222C22.3995 10.1197 21.8766 9.89813 21.4992 9.51382C21.1154 9.12325 20.9085 8.6075 20.9161 8.06171C20.9311 6.96011 21.844 6.06506 22.95 6.06506C22.9512 6.06506 22.9512 6.06506 22.9525 6.06506C23.4917 6.06632 24.0021 6.27912 24.387 6.66719C24.7657 7.04774 24.9814 7.56599 24.9789 8.08925C24.9801 8.63379 24.7682 9.14453 24.3833 9.52759C23.9983 9.9119 23.4854 10.1222 22.94 10.1222ZM22.9487 7.44206C22.5675 7.44206 22.2979 7.7788 22.2942 8.08174C22.2917 8.25699 22.3581 8.42349 22.4823 8.54992C22.6039 8.67385 22.7694 8.7452 22.9362 8.74646C22.9374 8.74646 22.9387 8.74646 22.9387 8.74646C23.1168 8.74646 23.2835 8.67886 23.4077 8.55368C23.5306 8.431 23.5983 8.26576 23.5983 8.0905V8.0855C23.5995 7.92401 23.5293 7.76128 23.4064 7.6386C23.2823 7.51216 23.1193 7.44206 22.9487 7.44206Z" fill="black"/>
</svg>
