<svg width="102" height="75" viewBox="0 0 102 75" fill="none" xmlns="http://www.w3.org/2000/svg">
<path d="M21.9871 6.04737C21.9871 9.17349 21.9871 12.2951 21.9871 15.4213C21.9871 16.3253 21.7459 17.0199 20.638 16.971C19.749 16.9309 19.204 16.2362 19.2264 15.2788C19.3023 12.4109 19.2576 9.53419 19.4229 6.67081C19.5301 4.83612 19.8473 3.00142 20.2449 1.2068C20.3521 0.721402 21.0535 0.222649 21.594 0.0311635C21.9425 -0.0935248 22.6438 0.200383 22.9208 0.529917C25.5922 3.6783 28.2011 6.88011 30.8412 10.0508C31.4398 10.7722 32.0608 11.4758 32.7309 12.1304C33.2669 12.6559 33.4948 13.1947 33.0212 13.8226C32.4673 14.5573 31.8419 14.0898 31.3147 13.7825C29.921 12.9676 28.7997 11.8765 27.866 10.5317C27.2629 9.66333 26.4008 8.97755 25.6547 8.20715C25.5609 8.26504 25.4671 8.31848 25.3733 8.37637C26.1417 10.2511 26.8386 12.1571 27.6963 13.9873C30.0371 19.015 32.9408 23.7175 36.1394 28.2552C36.3761 28.5892 36.3493 29.4086 36.0992 29.7114C35.6792 30.2102 35.0449 30.1033 34.4999 29.609C34.1112 29.2572 33.5975 29.0435 33.1552 28.7451C32.8961 28.5714 32.5968 28.3933 32.4494 28.1395C30.7161 25.1336 28.822 22.199 27.3434 19.0728C25.6905 15.5727 24.4084 11.8988 22.9878 8.29176C22.6974 7.55254 22.5053 6.77324 22.2641 6.01175C22.1658 6.02065 22.0765 6.03401 21.9871 6.04737Z" fill="white"/>
<path d="M61.6652 54.8361C62.9116 52.1242 64.7119 50.1024 67.3476 52.142C67.9238 51.238 68.4063 50.2182 69.1255 49.4122C70.5461 47.8179 72.5742 47.9382 73.9055 49.6126C74.3879 50.2227 74.8257 50.8906 75.1563 51.5898C76.0051 53.3577 76.8092 55.1478 77.5731 56.9514C77.9037 57.7396 77.9394 58.648 76.9253 58.933C76.09 59.1646 75.6879 58.6925 75.3663 57.7663C74.6426 55.6733 73.6687 53.656 72.6815 51.6655C72.4492 51.1934 71.721 50.6145 71.3145 50.6769C70.8275 50.7526 70.2021 51.4027 70.0636 51.9193C69.8179 52.85 69.6929 53.9054 69.885 54.8317C70.22 56.4259 70.9214 57.94 71.2832 59.5297C71.4083 60.0819 71.1894 61.0616 70.7918 61.3155C70.0056 61.8187 69.5365 61.0705 69.2283 60.3714C68.3572 58.412 67.5352 56.4214 66.5747 54.5066C66.329 54.0212 65.5741 53.4289 65.1407 53.4913C64.6538 53.5625 64.1535 54.2572 63.8631 54.7871C63.1528 56.0919 63.327 57.4991 63.6621 58.8796C64.0105 60.3224 64.4662 61.7474 64.7521 63.2036C64.8236 63.5732 64.4394 64.0363 64.2607 64.4549C63.8542 64.2456 63.2064 64.1343 63.0813 63.8181C62.1164 61.3912 61.2542 58.9286 60.3518 56.4749C60.1866 56.0207 59.9007 55.5887 59.8426 55.13C59.789 54.6803 59.7845 54.0078 60.057 53.7852C60.6377 53.3087 61.0666 53.7718 61.3257 54.3552C61.3882 54.4977 61.5089 54.6135 61.6652 54.8361Z" fill="white"/>
<path d="M87.821 43.9704C85.7705 41.2718 83.0723 41.5123 80.8297 43.7567C80.316 44.2732 79.9095 44.8967 79.4851 45.4266C78.8507 43.9125 78.2834 42.4118 77.582 40.9824C77.4212 40.6528 76.7869 40.5504 76.3714 40.3411C76.2776 40.7909 76.0051 41.2852 76.1123 41.6726C76.4831 42.9863 76.9968 44.251 77.4435 45.5424C78.5872 48.8733 79.6995 52.2177 80.8878 55.5353C81.0173 55.9004 81.5355 56.1275 81.875 56.417C82.1654 56.0563 82.496 55.7178 82.7238 55.3215C82.831 55.1434 82.7417 54.8539 82.7417 54.4932C85.1406 54.9296 87.1553 54.0256 88.3883 52.0128C89.8893 49.568 89.6659 46.4018 87.821 43.9704ZM87.3206 47.8714C87.2983 49.8441 86.8337 51.1133 85.5114 51.995C84.5018 52.663 83.0901 52.5873 82.1967 51.7991C79.9139 49.7951 80.9593 45.0882 83.3894 44.1842C84.5643 43.7478 85.3327 44.1708 85.9224 44.8655C86.7399 45.8185 87.4502 46.9318 87.3206 47.8714Z" fill="white"/>
<path d="M41.2365 46.4241C40.4145 46.3172 40.0571 46.9808 40.0125 47.6665C39.9544 48.6151 39.4273 48.9758 38.6008 49.1717C37.1892 49.5057 35.5854 48.8288 34.4597 47.2836C35.1387 47.0386 35.706 46.8338 36.2689 46.6245C37.3187 46.2371 38.3953 45.8986 39.4094 45.4355C41.0265 44.7007 41.4867 43.5518 40.4681 42.1713C39.5613 40.9467 38.4177 39.7756 37.1356 38.9829C35.027 37.6781 31.8106 39.0185 31.413 41.3163C30.8903 44.3178 31.3192 47.2301 33.5082 49.5458C35.4693 51.6209 38.3283 52.0974 40.5173 50.7348C41.5581 50.0891 42.2506 49.2162 42.2774 47.9248C42.2952 47.1678 42.0183 46.5265 41.2365 46.4241ZM33.4277 45.6315C33.4277 44.3044 33.3027 43.1778 33.459 42.0912C33.6556 40.7374 34.893 40.065 36.1081 40.7196C37.1892 41.303 38.0871 42.2159 39.0654 42.9818C39.0297 43.1689 38.9939 43.3603 38.9582 43.5474C37.2428 44.1931 35.5229 44.8432 33.4277 45.6315Z" fill="white"/>
<path d="M101.951 46.1703C100.906 43.4583 99.9138 40.7196 98.6764 38.0967C98.1358 36.9523 97.1486 35.79 95.6163 35.977C93.8026 36.1997 92.3954 37.2373 91.4975 38.8181C91.0999 39.5173 90.8721 40.3322 90.7023 41.1249C90.6577 41.3297 91.0597 41.7483 91.3411 41.8596C91.4886 41.9175 91.8817 41.5657 92.0514 41.3253C92.4401 40.7642 92.6456 40.016 93.1414 39.6019C93.9634 38.9116 94.9194 38.1145 95.8977 37.9854C96.3802 37.923 97.0503 39.2545 97.7829 40.1363C94.294 40.497 92.7751 42.6345 92.5026 44.3712C92.1989 46.2905 93.061 48.0584 94.6603 48.8377C96.4785 49.7283 98.4307 49.1361 100.32 47.1143C100.383 47.1945 100.445 47.2791 100.508 47.3593C100.941 47.2969 101.433 47.337 101.781 47.1322C101.973 47.0253 102.058 46.4464 101.951 46.1703ZM96.4338 47.1856C95.2857 47.2168 94.428 46.3261 94.4101 45.1015C94.3878 43.5563 95.6029 42.2782 97.1664 42.1981C98.1135 42.1491 99.0382 43.1689 99.0695 44.2866C99.1097 45.725 97.8053 47.1544 96.4338 47.1856Z" fill="white"/>
<path d="M79.762 31.7243C78.9401 29.658 78.0645 27.614 77.1174 25.5967C76.2821 23.8065 74.9017 22.6799 72.8244 22.6354C70.8454 22.5953 68.5984 23.5438 68.2365 25.953C68.1025 26.8436 68.3482 27.3602 69.1077 27.4893C69.8269 27.6095 70.1664 27.0707 70.2959 26.3493C70.5282 25.0757 71.2117 24.5992 72.6278 24.5948C73.9412 24.5903 74.8391 25.2226 75.1608 26.376C72.5296 26.6566 71.0911 27.8545 70.6087 30.1656C70.2334 31.9825 71.1268 33.6436 73.0344 34.6678C74.58 35.4961 76.2106 34.9929 78.0287 33.2428C78.7122 33.2428 79.427 33.4343 79.637 33.1938C79.905 32.8865 79.9318 32.1562 79.762 31.7243ZM74.6113 32.9979C73.499 33.0023 72.4983 31.9335 72.5251 30.7757C72.5564 29.5288 73.8206 28.1974 74.9419 28.233C76.2508 28.2731 77.2068 29.0479 77.1844 30.0588C77.1576 31.3635 75.7326 32.9979 74.6113 32.9979Z" fill="white"/>
<path d="M58.6007 65.9824C57.877 63.4619 57.1399 60.9191 56.0856 58.5322C55.1698 56.4526 53.0836 55.8915 51.0108 56.8178C49.492 57.4991 48.2813 58.5456 47.9016 60.2378C47.8167 60.6074 48.1518 61.0661 48.2947 61.4802C48.7057 61.2665 49.1301 61.0661 49.5188 60.8167C49.6304 60.7455 49.6349 60.5228 49.7198 60.3892C50.4256 59.267 51.2789 58.3007 52.7218 58.2606C53.9681 58.225 54.2943 59.2982 54.7857 60.1398C54.8437 60.2422 54.9018 60.3447 55.0626 60.6252C54.5176 60.6252 54.1245 60.6074 53.7359 60.6297C51.0064 60.7766 48.2813 63.4931 49.9387 66.3831C51.2565 68.6765 54.5891 68.7344 56.2598 67.4964C56.5011 67.3228 56.9255 67.2649 57.2248 67.3272C58.279 67.5588 58.9179 67.0823 58.6007 65.9824ZM53.2355 66.2674C52.3555 66.2718 51.5335 65.4569 51.5424 64.5885C51.5514 63.4708 52.8022 62.4911 54.2094 62.5089C55.2547 62.5178 56.1437 63.257 56.1437 64.1076C56.1392 65.2387 54.7589 66.2629 53.2355 66.2674Z" fill="white"/>
<path d="M35.782 62.8518C36.7067 62.1749 37.484 61.409 38.4132 60.9637C40.9149 59.7658 43.1038 61.2576 43.9124 63.4307C44.578 65.2209 44.9756 67.109 45.5608 68.9348C45.802 69.6918 45.601 70.2752 44.9488 70.48C44.1715 70.7294 43.7382 70.2129 43.5371 69.438C43.1172 67.8482 42.7196 66.2495 42.1612 64.7088C41.5045 62.9052 40.821 62.4287 39.6551 62.6247C38.2211 62.8652 37.073 64.1209 37.149 65.7018C37.2338 67.5721 37.6046 69.4291 37.7342 71.3039C37.7699 71.8249 37.4081 72.3771 37.2294 72.9159C36.7916 72.573 36.0813 72.3014 35.9651 71.8739C35.3799 69.7096 34.9779 67.492 34.4507 65.3099C33.9191 63.0878 33.3607 60.8701 32.7219 58.6747C32.5254 58.0068 32.713 57.6416 33.2535 57.4813C33.8164 57.3121 34.147 57.5258 34.3257 58.225C34.7277 59.8014 35.2995 61.3422 35.782 62.8518Z" fill="white"/>
<path d="M27.0351 51.6343C26.8877 51.8792 26.7313 52.0707 26.6554 52.2845C25.4939 55.4507 21.9201 55.4774 19.9143 53.6872C18.9226 52.8055 18.1185 51.6209 17.5199 50.4275C16.747 48.8956 16.202 47.2435 15.7017 45.5958C15.5498 45.1015 15.7151 44.0996 16.0189 43.9615C16.7336 43.6364 17.0285 44.3178 17.292 44.9679C18.0202 46.7804 18.8377 48.5572 19.6105 50.3518C20.0885 51.4562 20.8078 52.2978 21.9961 52.6808C24.3503 53.4467 25.3286 51.6209 25.0338 49.7462C24.7255 47.7868 23.9929 45.8986 23.5373 43.9571C23.4345 43.5296 23.5551 42.8438 23.8455 42.5766C24.3101 42.1535 24.9936 42.1268 25.3644 42.8616C26.3427 44.7898 27.3165 46.718 28.2591 48.6641C28.688 49.5502 29.0007 50.4943 29.4519 51.3716C29.8137 52.0663 29.7557 52.6229 29.1079 53.0281C28.42 53.4646 27.9822 53.037 27.6248 52.467C27.4595 52.1909 27.2585 51.9416 27.0351 51.6343Z" fill="white"/>
<path d="M3.40337 47.809C4.20301 46.5978 4.96691 45.6359 6.4411 45.2039C8.54964 44.5894 10.1847 45.3732 11.2077 46.8561C12.6416 48.9268 13.6244 51.3092 14.7725 53.5759C15.1478 54.3151 14.9601 54.9519 14.1337 55.2057C13.4055 55.4284 13.0348 55.0499 12.7042 54.3374C11.7795 52.3513 10.8011 50.3785 9.67539 48.4993C8.80428 47.052 8.04484 46.8694 6.76274 47.3147C5.637 47.7066 4.75248 48.9401 4.99371 50.2627C5.30195 51.9816 5.85589 53.6649 6.34729 55.3482C6.53491 55.9984 6.97717 56.7376 5.98098 57.0003C5.16794 57.2141 4.74355 56.7421 4.43977 55.896C3.39891 52.997 2.21955 50.1514 1.11614 47.2791C0.986593 46.9407 0.986593 46.531 1.00446 46.1614C1.04467 45.3509 1.54947 45.2663 2.00513 45.7606C2.53673 46.3217 2.89857 47.0476 3.40337 47.809Z" fill="white"/>
<path d="M45.0873 46.3618C45.4625 44.9902 46.1549 45.1193 47.2271 45.5112C48.0044 45.7962 49.0408 45.6493 49.8761 45.4043C50.4882 45.2262 51.1002 44.7586 50.9394 43.7789C50.7562 42.6701 50.0593 42.0645 49.1703 41.7973C48.3752 41.5568 47.4192 41.5034 46.6151 41.6993C44.9309 42.109 42.666 40.0383 42.3533 38.6311C41.9512 36.832 42.9117 34.6054 44.7031 34.1423C45.9048 33.8306 47.2941 34.0755 48.5672 34.2759C49.1793 34.3739 49.7332 35.0374 49.3043 35.7321C49.1525 35.977 48.4109 35.9102 47.9374 35.9058C47.1556 35.8969 46.3292 35.6519 45.5965 35.8212C44.5601 36.0616 43.9615 37.2417 44.2698 38.208C44.5959 39.2367 45.4178 39.6642 46.4721 39.6954C47.6425 39.731 48.8755 39.5573 49.961 39.878C51.6988 40.3901 52.695 41.824 53.0345 43.5563C53.3025 44.9189 52.6861 46.1213 51.5335 46.8739C49.55 48.1787 46.8072 48.6952 45.0873 46.3618Z" fill="white"/>
<path d="M26.9547 62.9409C28.2011 62.8251 29.4787 63.7113 30.4302 65.065C30.6715 65.4079 30.5062 66.0403 30.5285 66.5346C30.055 66.3965 29.3938 66.4099 29.1347 66.0937C27.9822 64.7088 26.6152 64.5262 25.007 65.0517C23.7696 65.4569 23.1843 66.3876 22.9476 67.5721C22.3758 70.4311 25.351 73.4904 28.1341 72.7957C28.7952 72.6309 29.3491 71.8427 29.8316 71.2415C30.2828 70.6804 30.6357 69.9724 31.48 70.3598C32.3913 70.7784 32.1188 71.6334 31.7838 72.2212C30.7251 74.0782 28.9337 75.5077 26.298 74.8219C22.9208 73.9401 21.1428 71.7002 20.9418 68.6899C20.7229 65.4569 22.5411 63.1635 26.9547 62.9409Z" fill="white"/>
<path d="M53.24 34.0354C52.4135 33.8929 51.7658 33.7816 51.1225 33.6703C51.395 33.0513 51.672 32.4278 51.9445 31.8089C52.3287 30.2725 49.7377 29.0657 51.596 26.7679C52.485 28.3087 53.24 29.6224 54.0262 30.9806C55.0894 31.0964 55.8712 29.275 57.189 30.3749C57.5956 32.2987 55.688 32.0493 54.7454 32.9311C55.7774 35.3803 56.778 37.9008 57.9172 40.3545C58.2567 41.0848 58.9357 41.5924 59.8604 40.8042C60.3786 40.3634 61.1738 40.0249 61.6339 40.822C62.0762 41.5791 61.558 42.1268 60.8834 42.5989C58.6632 44.153 56.6753 42.6478 55.9382 40.8933C54.9465 38.5465 54.0664 36.1507 53.24 34.0354Z" fill="white"/>
<path d="M66.3603 27.4715C64.0999 28.4111 63.3672 29.8985 64.1401 32.4857C64.7208 34.4318 65.5785 36.3021 66.329 38.1991C66.5837 38.8404 67.0036 39.5752 66.1369 39.967C65.2971 40.3456 64.7655 39.6909 64.4528 38.9963C63.3047 36.4401 62.1968 33.8707 61.0666 31.3057C60.745 30.5709 60.4278 29.8317 60.0838 29.1103C59.7756 28.4601 59.7041 27.8277 60.392 27.4225C61.1157 26.995 61.3436 27.6674 61.6473 28.1217C61.7814 28.3176 61.9377 28.5002 62.0628 28.6649C62.5006 28.0059 62.916 27.3201 63.3985 26.6833C63.604 26.4116 63.9078 26.1756 64.216 26.0242C65.5249 25.3785 66.0386 25.7214 66.3603 27.4715Z" fill="white"/>
</svg>
